<?xml version="1.0" encoding="UTF-8"?>
<svg width="101px" height="37px" viewBox="0 0 101 37" version="1.1" xmlns="http://www.w3.org/2000/svg" xmlns:xlink="http://www.w3.org/1999/xlink">
    <!-- Generator: Sketch 54.1 (76490) - https://sketchapp.com -->
    <title>Artboard Copy</title>
    <desc>Created with Sketch.</desc>
    <g id="Artboard-Copy" stroke="none" stroke-width="1" fill="none" fill-rule="evenodd">
        <g id="Group-22" fill="#000000">
            <path d="M100.997969,20.9205845 C100.987894,20.9552966 100.969759,20.9895417 100.968519,21.0245651 C100.876139,23.3013977 100.446789,25.5183014 99.759519,27.6843044 C99.108829,29.734341 98.241914,31.6816422 96.909689,33.3893834 C96.013789,34.5376841 94.955294,35.4881415 93.579359,36.026101 C92.711514,36.3654388 91.812979,36.5215654 90.883754,36.3844293 C90.306999,36.2992835 89.795034,36.0636149 89.470309,35.550094 C88.960824,34.7444 89.148064,33.4066617 90.561509,33.0298098 C91.469809,32.7876035 92.258449,33.3204262 92.476999,34.2915863 C92.508464,34.4310573 92.528304,34.5728632 92.555429,34.7131125 C92.624714,35.0706625 92.761734,35.1581432 93.084754,34.9883186 C93.310744,34.8695503 93.526659,34.7076644 93.703979,34.5233634 C94.247254,33.9583192 94.631034,33.2801104 94.978854,32.5838451 C96.103999,30.3311398 96.866599,27.9528171 97.392204,25.4941742 C97.630594,24.3791846 97.797994,23.2540772 97.801559,22.1107577 C97.804969,20.9775559 97.696004,19.8605428 97.243404,18.8057936 C97.148699,18.584757 97.030279,18.3685458 96.890779,18.1733487 C96.437404,17.5387246 95.890564,17.3491313 95.135714,17.5410595 C94.356219,17.7392142 93.722579,18.1912496 93.132184,18.7125535 C92.110114,19.6150677 91.282569,20.6864725 90.508964,21.8019291 C88.912929,24.1033559 87.669519,26.5928194 86.560339,29.1608911 C85.787509,30.9503536 84.946169,32.710552 84.102659,34.4679486 C83.882249,34.9271444 83.565894,35.3485148 83.245974,35.7487156 C82.886684,36.1977935 82.411454,36.4630374 81.806954,36.4301932 C81.197649,36.3970377 80.819139,36.0404217 80.760239,35.4307031 C80.709089,34.9016162 80.787364,34.3834255 80.937869,33.8828243 C81.182769,33.0685691 81.469364,32.2669222 81.724029,31.4554689 C82.380609,29.3630929 83.055944,27.2783442 83.800874,25.2149209 C85.200989,21.3365069 86.588239,17.4526449 87.929764,13.5533725 C89.006704,10.4229028 90.012964,7.26768327 91.038599,4.11931271 C91.228784,3.53558931 91.358054,2.93209714 91.524059,2.34012378 C91.581719,2.13496446 91.506234,1.98366335 91.342864,1.89805059 C91.097809,1.77009842 90.842214,1.6503962 90.577784,1.57412301 C90.042724,1.41986437 89.497744,1.30140744 88.958964,1.15929025 C88.786294,1.11368199 88.617189,1.04861629 88.453199,0.976701566 C88.311529,0.914749055 88.156684,0.838631523 88.153584,0.655264545 C88.149864,0.445279779 88.233874,0.261134502 88.422509,0.154040715 C88.522484,0.0973806298 88.641524,0.0744986723 88.752349,0.0369847149 C88.791564,0.0237536511 88.831244,0.0122348426 88.870769,9.33957447e-05 L89.317324,9.33957447e-05 C89.523474,0.0312253106 89.729624,0.0631355234 89.935929,0.0936448 C90.867014,0.230780885 91.795464,0.389086672 92.729804,0.497581396 C93.445284,0.580703609 94.162314,0.536496289 94.873764,0.388619694 C95.142689,0.332737906 95.428664,0.331181311 95.704564,0.347369906 C95.991469,0.36418114 96.090514,0.534317055 96.021229,0.811858077 C95.994104,0.92019714 95.962794,1.02791357 95.927609,1.13391774 C95.087354,3.67677254 94.252214,6.22133961 93.403899,8.76170386 C92.249149,12.219837 91.084479,15.6745456 89.923839,19.1306551 C89.784029,19.5467331 89.643289,19.9624999 89.497744,20.3939882 C89.528279,20.3779553 89.541454,20.3746864 89.548739,20.3664365 C89.671809,20.2264985 89.793794,20.0856266 89.916709,19.945533 C90.950249,18.767657 92.014479,17.6212242 93.251999,16.6517764 C94.592749,15.6016969 96.070209,14.9035637 97.804194,14.8539083 C98.243464,14.8414555 98.670179,14.8686959 99.070544,15.0718317 C99.710074,15.3962262 100.085949,15.9492847 100.361849,16.5837531 C100.697889,17.3559803 100.844054,18.1747497 100.923879,19.0079954 C100.949454,19.2718383 100.973324,19.535837 100.997969,19.7999913 L100.997969,20.9205845 Z" id="Fill-4"></path>
            <path d="M24.4914725,22.2560036 C24.5592075,22.2606734 24.5940825,22.2653432 24.6288025,22.2651875 C25.6900875,22.2603621 26.7433125,22.166188 27.7830525,21.9505995 C28.6832925,21.7641193 29.5588875,21.501366 30.3436525,20.9993639 C31.2217275,20.4374328 31.7216025,19.678281 31.5856675,18.5867961 C31.5194825,18.055997 31.2130475,17.6719848 30.7179775,17.5736079 C30.4972575,17.5298676 30.2615025,17.5250422 30.0369075,17.5469902 C29.4911525,17.6002257 28.9960825,17.8192387 28.5320125,18.0986477 C26.9857325,19.0294919 25.7545675,20.2887779 24.7611725,21.7907371 C24.6670875,21.93301 24.5892775,22.086179 24.4914725,22.2560036 M24.8375875,19.2424342 C24.8904425,19.1681846 24.9436075,19.0942463 24.9958425,19.0196854 C25.7702225,17.9120119 26.5982325,16.8501022 27.6170475,15.9535031 C28.4328125,15.2356011 29.3336725,14.6728918 30.4006925,14.403912 C32.2596075,13.935221 33.9326775,14.8025562 34.6755925,15.9432296 C35.3498425,16.9788327 35.4815925,18.0622233 34.8420625,19.1793921 C34.2547675,20.2055 33.4250525,20.9967176 32.4714925,21.6677661 C31.1152425,22.6221149 29.6072475,23.2346353 28.0096625,23.6407512 C27.9509175,23.6558502 27.8926375,23.672817 27.8173075,23.6933641 C27.9197625,24.1950549 28.0169475,24.6872505 28.1214175,25.1778895 C28.4594725,26.7646832 28.8161275,28.348208 29.3563025,29.8797426 C29.5950025,30.5563947 29.8978725,31.2126555 30.2066325,31.8614446 C30.3292375,32.1192169 30.5308925,32.3458572 30.7246425,32.5611344 C31.0189875,32.8883308 31.3847875,32.9488824 31.7916625,32.7801474 C32.2213225,32.6022285 32.5531775,32.2972914 32.8628675,31.962312 C32.9471875,31.8712512 33.0242225,31.773497 33.1049775,31.6790116 C33.1331875,31.6460118 33.1607775,31.612078 33.1917775,31.58188 C33.3931225,31.3859046 33.6752225,31.3076079 33.8491325,31.3980461 C34.0410225,31.4978239 34.1436325,31.7613555 34.1002325,32.0527502 C33.9711175,32.920241 33.5718375,33.6656947 33.0485575,34.3488846 C32.3761675,35.226649 31.5721825,35.9412821 30.5127575,36.3175113 C30.3329575,36.3813317 30.1427725,36.417289 29.9556875,36.4585388 C29.3860625,36.5846231 28.9762425,36.3087943 28.6174175,35.9126407 C27.9651775,35.1925595 27.4897925,34.3547997 27.0418425,33.5005399 C25.9091025,31.3407633 25.0080875,29.0791854 24.1461325,26.8011075 C23.8494625,26.0168946 23.5699975,25.2259883 23.2824725,24.4381952 C23.2559675,24.3653465 23.2283775,24.2928091 23.1849775,24.1762201 C23.0884125,24.464813 23.0045575,24.7099768 22.9242675,24.9562302 C22.0877325,27.5253915 21.2479425,30.0934632 20.4174525,32.6643367 C20.1595325,33.4628703 19.9326125,34.275102 19.5125625,35.005768 C19.2947875,35.3847991 19.0253975,35.7384576 18.7451575,36.074838 C18.5391625,36.3220254 18.2527225,36.4697463 17.9159075,36.4804868 C17.1058775,36.506482 16.6490925,36.0262722 16.6272375,35.1397909 C16.6047625,34.2195315 16.7816175,33.3302484 17.0559675,32.4616679 C18.1239175,29.0801193 19.2171325,25.7065094 20.2767125,22.3223146 C22.0378225,16.6970889 23.7825025,11.0667264 25.5276475,5.4365196 C25.7241875,4.80205117 25.8841475,4.15590828 26.0503075,3.5124116 C26.1495075,3.12746547 26.0918475,2.95592862 25.7226375,2.81567934 C25.2329925,2.62982181 24.7210275,2.5020253 24.2163475,2.3572619 C23.8476025,2.25156905 23.4749825,2.15957424 23.1048425,2.05886249 C23.0456325,2.0426739 22.9876625,2.01761271 22.9331025,1.98897134 C22.7808925,1.90911798 22.6076025,1.84669849 22.6116325,1.62519492 C22.6161275,1.37925279 22.7441575,1.13595688 22.9707675,1.09221654 C23.2641825,1.03571211 23.5757325,0.998042494 23.8694575,1.03446683 C24.6677075,1.13346632 25.4602225,1.27931934 26.2561475,1.39995551 C27.2042825,1.54347364 28.1541225,1.58067628 29.1064425,1.42906386 C29.3986175,1.38252164 29.6937375,1.32119177 29.9871525,1.32243705 C30.4165025,1.32399364 30.5656125,1.54145007 30.4394425,1.96079696 C30.1923725,2.7815899 29.9366225,3.59973662 29.6689375,4.41399186 C28.1190925,9.12845339 26.5645975,13.8413583 25.0124275,18.5550416 C24.9392675,18.7771678 24.8724625,19.0014732 24.8027125,19.224689 C24.8143375,19.2306041 24.8259625,19.2365192 24.8375875,19.2424342" id="Fill-8"></path>
            <path d="M41.610649,23.5665016 C41.732014,23.5665016 41.819124,23.5735062 41.904684,23.5651006 C42.126489,23.5436196 42.350309,23.5300772 42.568394,23.4871152 C44.730334,23.0620089 46.604439,22.0874243 48.136459,20.4884891 C48.790404,19.8059219 49.271679,19.0164165 49.422959,18.0567753 C49.516114,17.4662028 49.302369,17.0533936 48.763279,16.8015365 C48.284794,16.577698 47.806154,16.5873489 47.326274,16.7960884 C46.499814,17.155662 45.855944,17.7574419 45.252684,18.4028065 C43.910849,19.8386104 42.813759,21.4548238 41.832919,23.153848 C41.759294,23.2811776 41.693109,23.4130212 41.610649,23.5665016 M42.361159,25.2543183 C41.811219,25.2543183 41.383729,25.2571202 40.956394,25.2519834 C40.857349,25.2507382 40.803099,25.2773559 40.757219,25.3716856 C40.084984,26.7539427 39.709729,28.2110719 39.648814,29.7492999 C39.618279,30.5188808 39.672529,31.2791222 39.920374,32.013991 C40.069329,32.4555972 40.284624,32.8587555 40.656469,33.1574662 C40.981659,33.4188187 41.357999,33.5154833 41.767819,33.499606 C42.999914,33.4513515 44.087704,32.9793917 45.117524,32.3421214 C45.423184,32.152995 45.716909,31.9440999 46.024274,31.7577753 C46.154629,31.6787003 46.300949,31.6131676 46.448509,31.5787668 C46.713249,31.5168143 46.882509,31.6875729 46.841744,31.9595102 C46.773389,32.4145031 46.521979,32.7775012 46.236779,33.1169947 C45.499444,33.9949147 44.580449,34.647751 43.602399,35.2210452 C42.765709,35.7113729 41.892284,36.1243377 40.944769,36.3516007 C39.128324,36.7872919 37.711314,36.0886917 36.934919,34.3825071 C36.484644,33.3928235 36.306704,32.3396308 36.274309,31.2641788 C36.187664,28.3849437 36.798364,25.6506276 38.097729,23.088004 C38.996264,21.3161311 40.174109,19.7293374 41.524779,18.2759439 C42.630704,17.0860822 43.860474,16.0489224 45.298409,15.2799641 C46.083794,14.8599946 46.897699,14.492171 47.790964,14.4076479 C49.441869,14.25121 51.377664,14.9085604 52.125539,16.7484565 C52.551634,17.7968238 52.505754,18.8587334 52.134219,19.9036761 C51.493604,21.705747 50.276544,23.0055045 48.596964,23.8826462 C47.321779,24.5485578 45.950339,24.8903862 44.534724,25.0623901 C43.773209,25.1548519 43.005804,25.1987479 42.361159,25.2543183" id="Fill-10"></path>
            <path d="M58.8699145,16.1149843 C58.4419595,16.071711 58.0374095,16.0343527 57.6334795,15.9890557 C56.9686845,15.9146505 56.3040445,15.8393112 55.6403345,15.7558777 C55.3227395,15.7160288 55.1726995,15.5359307 55.1616945,15.2158946 C55.1423195,14.6513174 55.5059495,14.2724419 56.0699945,14.271041 C57.0802845,14.2685505 58.0907295,14.2669939 59.1010195,14.264192 C59.2124645,14.2638807 59.3271645,14.2380412 59.4347345,14.2570317 C59.7097045,14.3059088 59.8146395,14.1530511 59.9243795,13.9313918 C60.5530595,12.6612097 61.2062295,11.4030134 62.0639995,10.2685664 C62.2684445,9.99818569 62.5065245,9.74586152 62.7624295,9.52404663 C63.0941295,9.2365434 63.7494695,9.24012357 64.1440995,9.49042416 C64.4875795,9.70834757 64.6895445,10.2083261 64.5532995,10.6636304 C64.3398645,11.3768625 64.0929495,12.0804438 63.8435545,12.7820015 C63.6713495,13.2662585 63.4704695,13.7402419 63.2740845,14.2397534 C63.3489495,14.2397534 63.4033545,14.2392865 63.4577595,14.2399091 C64.8580295,14.2562534 66.2582995,14.2713523 67.6584145,14.2906541 C67.9617495,14.2948569 68.2652395,14.3073097 68.5677995,14.3284794 C68.9069395,14.352451 69.1025495,14.5303699 69.1501345,14.8712643 C69.2245345,15.4023748 69.0921645,15.8828959 68.7553495,16.3017758 C68.5932195,16.5031993 68.3825745,16.5981517 68.1206245,16.5878781 C66.2578345,16.5147181 64.3950445,16.4463836 62.5325645,16.3693321 C62.3977145,16.363884 62.3651645,16.4320629 62.3254845,16.5277935 C61.2778395,19.0647333 60.2205845,21.5976259 59.1834795,24.1389241 C58.4399445,25.9616977 57.7219845,27.7958345 57.1642945,29.68632 C56.9874395,30.2859207 56.8563095,30.9026439 56.7558695,31.5201454 C56.6442695,32.2067598 56.9762795,32.4548812 57.6258845,32.2059815 C58.1874495,31.9907043 58.6770945,31.6466967 59.1455045,31.2794957 C59.9758395,30.6288387 60.7897445,29.957012 61.6121745,29.2962371 C61.7766295,29.1642378 61.9465095,29.0386205 62.1190245,28.917673 C62.1889295,28.8686402 62.2693745,28.8275461 62.3510595,28.8043528 C62.6808995,28.7108014 62.9110745,28.9105127 62.7937395,29.2285252 C62.6556345,29.6028865 62.4801745,29.9733562 62.2603845,30.3052225 C61.6885895,31.1688218 60.9768295,31.9178557 60.2404245,32.6408944 C59.1839445,33.6780541 58.0718195,34.6517048 56.8270145,35.4558421 C56.3144295,35.78693 55.7685195,36.0772351 55.2109845,36.3253565 C54.1974395,36.7763023 53.5357445,36.1983383 53.1907145,35.5002051 C52.9163645,34.9448117 52.8949745,34.3480129 52.9558895,33.7477896 C53.1163145,32.1625525 53.5389995,30.6341311 53.9914445,29.1153607 C55.2951495,24.7389917 56.9279195,20.4857495 58.7841995,16.3174974 C58.8111695,16.2571015 58.8358145,16.1957717 58.8699145,16.1149843" id="Fill-12"></path>
            <path d="M66.0475925,31.4633297 C66.0773525,28.8951024 66.6840225,26.4622989 67.7976975,24.1600938 C68.8003925,22.0877979 70.1735375,20.2734299 71.7605825,18.6192356 C72.8057475,17.5299299 73.9516625,16.5635952 75.2600175,15.8039765 C76.2492275,15.2295927 77.2903625,14.7817601 78.4382925,14.6687512 C79.3996025,14.5741102 80.3587425,14.5753555 81.2501475,15.0488719 C82.4487625,15.6856752 82.9841325,17.1666204 82.4396175,18.3496332 C81.8780525,19.5698486 80.2497775,20.1032939 79.1596625,19.4193258 C78.5754675,19.0529031 78.3132075,18.4835004 78.1930825,17.8291076 C78.1506125,17.5971748 78.1219375,17.3602609 78.0537375,17.1359555 C77.9026125,16.6397128 77.5969525,16.4930814 77.1459025,16.7463396 C76.7985475,16.9412254 76.4691725,17.1868562 76.1774625,17.4591048 C75.3358125,18.2448743 74.6928725,19.1929968 74.0823275,20.1622889 C72.5596075,22.5799934 71.3188325,25.1320322 70.4733075,27.8689945 C70.1829925,28.8087113 69.9441375,29.7639941 69.9022875,30.7519654 C69.8850825,31.1585482 69.9046125,31.5760272 69.9774625,31.9754497 C70.1789625,33.0789204 70.9175375,33.5809225 72.0211375,33.4216828 C73.0376275,33.2752071 73.9285675,32.8227048 74.7911425,32.2989103 C75.1144725,32.1026236 75.4261775,31.8871907 75.7499725,31.6921493 C75.8697875,31.6199232 76.0054125,31.5624848 76.1413475,31.5308859 C76.3792725,31.4753155 76.5234225,31.5967299 76.4956775,31.8409598 C76.4758375,32.0165438 76.4265475,32.1967976 76.3513725,32.3563487 C76.1106575,32.8666008 75.7292025,33.2691364 75.3065175,33.6288657 C73.8013125,34.9105666 72.1107275,35.8467033 70.1871775,36.3227103 C69.2928275,36.5439025 68.4245175,36.4783699 67.6468825,35.9178397 C67.0662525,35.4992711 66.7181225,34.9105666 66.4753925,34.2511927 C66.1440025,33.351636 66.0542575,32.4136314 66.0475925,31.4633297" id="Fill-14"></path>
            <path d="M8.115738,30.2162319 C8.044128,29.0385115 7.986003,27.9392436 7.908348,26.8413766 C7.796128,25.2573848 7.718163,23.6732373 7.891918,22.0895568 C8.077763,20.3972259 8.437053,18.7519042 9.294668,17.2558601 C9.950628,16.1119178 10.837848,15.2061348 12.086063,14.7379108 C13.653888,14.1498289 15.226983,14.1381544 16.757298,14.8822072 C17.478978,15.2330639 18.051548,15.757948 18.356123,16.5267506 C18.847938,17.7670461 18.112153,19.1130344 16.822708,19.3308022 C16.271993,19.4238866 15.804513,19.2412979 15.485988,18.7887955 C15.304328,18.5308676 15.179553,18.222506 15.077408,17.9205264 C14.919308,17.4529251 14.762138,16.9903048 14.445938,16.6017785 C13.933198,15.9716686 13.139288,15.8807634 12.497433,16.3804306 C11.978648,16.7842115 11.681513,17.3396049 11.458623,17.9416961 C11.172803,18.7139233 11.086933,19.5216408 11.040123,20.3380753 C10.960608,21.7246908 11.105223,23.0962073 11.290138,24.4657002 C11.466063,25.7687265 11.598123,27.0739321 11.455833,28.3895668 C11.285178,29.9654643 11.026638,31.5195695 10.277678,32.9447886 C9.435718,34.5474595 8.211993,35.7161516 6.435383,36.1725455 C4.414183,36.6916702 2.579138,36.2651629 0.993178,34.8853965 C0.511593,34.4665166 0.161138,33.9399202 0.056358,33.2923764 C-0.172887,31.8761856 0.863133,30.8398041 2.057253,30.8359126 C2.722978,30.8338891 3.174028,31.2400049 3.469303,31.8084737 C3.596558,32.0533262 3.659023,32.3314898 3.755898,32.5926866 C3.882843,32.934982 3.977083,33.2962679 4.151148,33.6128795 C4.740303,34.6845956 5.959843,34.9154388 6.920843,34.1570653 C7.516353,33.6871291 7.849603,33.0483022 7.951748,32.3148343 C8.051723,31.5967766 8.067998,30.8668889 8.115738,30.2162319" id="Fill-16"></path>
        </g>
    </g>
</svg>